<svg id="SvgjsSvg1075" width="288" height="288" xmlns="http://www.w3.org/2000/svg" version="1.1" xmlns:xlink="http://www.w3.org/1999/xlink" xmlns:svgjs="http://svgjs.com/svgjs"><defs id="SvgjsDefs1076"></defs><g id="SvgjsG1077"><svg xmlns="http://www.w3.org/2000/svg" viewBox="0 0 48 48" width="288" height="288"><g fill="#ffffff" transform="translate(8 -1013.103)" class="colorfff svgShape"><circle cx="16" cy="1037.103" r="24" fill="#ffa000" fill-rule="evenodd" class="colorffa40b svgShape"></circle><path fill="#ff852d" d="M28.41 47.576a24 24 0 0 0 2.01-.451 24 24 0 0 0 2.277-.756 24 24 0 0 0 2.19-.98 24 24 0 0 0 2.08-1.194 24 24 0 0 0 1.951-1.394 24 24 0 0 0 1.803-1.584 24 24 0 0 0 1.634-1.756 24 24 0 0 0 1.454-1.91 24 24 0 0 0 1.254-2.045 24 24 0 0 0 1.042-2.16 24 24 0 0 0 .823-2.254 24 24 0 0 0 .593-2.324 24 24 0 0 0 .045-.297L31.492 12.396l-.006-.007-.007-.006a1.261 1.261 0 0 0-.98-.383c-.241.01-.492.057-.72.156-.455.198-.88.532-1.343.969-.926.874-1.943 2.18-2.97 3.656-1.932 2.779-3.884 6.138-5.312 8.532.144.246.293.47.45.677.058.077.121.14.181.211.099.117.195.24.299.344l.025.025 2.327 2.326c-.045-.012-.095-.02-.14-.033a8.848 8.848 0 0 1-.952-.332 7.389 7.389 0 0 1-.303-.135c-.083-.039-.167-.076-.248-.119a6.396 6.396 0 0 1-.479-.279c-.022-.015-.047-.026-.07-.041-.093-.061-.18-.135-.27-.201L19.7 26.482l-.013-.013c-.2.702-.469 1.457-.563 2.218a3.187 3.187 0 0 0-.018.631c.016.208.053.414.114.62h-.282c-.198.01-.404.014-.593.062-.34.09-.654.258-.918.496a2.297 2.297 0 0 0-.613.91 2.814 2.814 0 0 1-.409.57c-.305.336-.66.597-.974.872a3.459 3.459 0 0 0-.43.433.704.704 0 0 0-.125.313.718.718 0 0 0 0 .281.875.875 0 0 0 .24.408L28.41 47.576z" color="#000" font-family="Sans" font-weight="400" transform="translate(-8 1013.103)" style="line-height:normal;-inkscape-font-specification:Sans;text-indent:0;text-align:start;text-decoration-line:none;text-transform:none;block-progression:tb;marker:none" class="colorff7712 svgShape"></path><path style="line-height:normal;-inkscape-font-specification:Sans;text-indent:0;text-align:start;text-decoration-line:none;text-transform:none;block-progression:tb;marker:none" d="M23.499 1024.363a2.02 2.02 0 0 0-.719.156c-.455.198-.88.532-1.344.969-.925.874-1.942 2.18-2.968 3.656-1.933 2.779-3.885 6.137-5.313 8.531 1.16 1.999 2.731 2.617 5.219 2.97 1.374-2.378 3.324-5.697 4.781-8.75.777-1.629 1.405-3.148 1.688-4.407.141-.63.199-1.212.125-1.719-.074-.506-.333-.99-.782-1.25a1.26 1.26 0 0 0-.687-.156zm-10.813 14.469c-.198.702-.468 1.457-.562 2.218-.053.427-.027.839.094 1.25h-.281c-.198.01-.405.013-.594.062a2.24 2.24 0 0 0-1.531 1.407c-.464.867-1.312 1.25-1.813 1.875a.703.703 0 0 0-.125.312.718.718 0 0 0 0 .281.875.875 0 0 0 .156.313c.086.107.175.183.282.25.083.052.162.108.25.156.142.078.308.15.468.219.205.082.344.129.5.187.89.366 1.647.412 1.97.438.89.072 2.306-.4 3.093-1.656a2.548 2.548 0 0 0 .125-2.282c.459-.09.846-.348 1.219-.625.657-.488 1.215-1.132 1.75-1.687-2.095-.368-3.79-1.06-5-2.719zm.532 1.187c.277-.105.17.611.094.844-.23.699-.488.963-.594.75-.112-.226.24-1.495.5-1.594zm-1.25 3.281c.392-.017.83.057 1.218.282.73.421.984 1.332.563 2.062-.086.149-.18.282-.281.406-.523-.233-1.194.063-1.688-.25-.438-.277-.661-1.304-1.031-1.75.159-.39.452-.615.844-.718.116-.031.244-.026.375-.031zm-2.313 1.375c-.19.807-1.066.896-.875 1.688.04.234.5.633.563.719a13.37 13.37 0 0 1-.72-.375c-.117-.076-.36-.218-.437-.47-.057-.187.03-.36.094-.468-.036.05-.06.078.062-.094.245-.343.762-.355 1.313-1z" color="#000" font-family="Sans" font-weight="400" overflow="visible" transform="translate(-1 .74)" fill="#823502" class="color000 svgShape"></path></g></svg></g></svg>